<svg width="100" height="80" viewBox="0 0 100 80" fill="none" xmlns="http://www.w3.org/2000/svg">
<path d="M12.281 32.7083C12.281 17.6233 12.281 10.0808 16.9673 5.39454C21.6536 0.708252 29.1961 0.708252 44.281 0.708252H67.0001C82.085 0.708252 89.6275 0.708252 94.3138 5.39454C99.0001 10.0808 99.0001 17.6233 99.0001 32.7083V33.4034C99.0001 48.4884 99.0001 56.0308 94.3138 60.7171C89.6275 65.4034 82.085 65.4034 67.0001 65.4034H44.281C29.1961 65.4034 21.6536 65.4034 16.9673 60.7171C12.281 56.0308 12.281 48.4884 12.281 33.4034V32.7083Z" fill="#F6F7F9" stroke="black"/>
<rect x="54.9531" y="10.3438" width="35.9792" height="26.8416" rx="6" fill="#E5EEF7"/>
<path d="M34.9765 67.8192C34.9547 68.6116 34.0887 69.227 32.5556 69.0963L22.7006 68.2549C21.8374 68.1786 21.0803 68.3638 20.6555 68.7505L15.773 73.1619C14.4441 74.3574 10.8904 73.3308 10.3703 71.6016L4.94036 53.629C4.78514 53.1116 5.04706 52.6922 5.42558 52.4036C3.19534 53.7079 3.91647 57.0764 4.10981 57.7708C4.10981 57.7763 4.10981 57.7817 4.11253 57.7845L4.12615 57.828C4.13976 57.8716 4.14793 57.8961 4.14793 57.8961L9.54517 75.7571C10.0653 77.4863 13.619 78.5102 14.9479 77.3174L19.8304 72.906C20.258 72.5193 21.0123 72.3341 21.8755 72.4104L31.7305 73.2518C32.8987 73.3526 33.6803 73.0176 33.9961 72.503C34.0098 72.4784 35.2025 70.5913 34.9765 67.8165V67.8192Z" fill="#B5DCFF"/>
<path d="M9.23952 53.2445C7.10958 52.0662 4.49276 52.7032 4.96744 54.28L10.3127 71.9707C10.8257 73.6723 14.3233 74.6819 15.6311 73.5064L20.4362 69.1636C20.8561 68.7838 21.6004 68.6009 22.4504 68.676L32.1508 69.5048C34.7826 69.7291 35.4212 67.7194 33.1244 66.4476L9.23952 53.2445Z" fill="#F6F7F9" stroke="#B5DCFF"/>
</svg>
