<svg width="115" height="115" viewBox="0 0 115 115" fill="none" xmlns="http://www.w3.org/2000/svg">
<path fill-rule="evenodd" clip-rule="evenodd" d="M57.5 0.818829C26.1959 0.818829 0.818829 26.1959 0.818828 57.5C0.818827 88.8042 26.1959 114.181 57.5 114.181C88.8042 114.181 114.181 88.8042 114.181 57.5C114.181 26.1959 88.8042 0.818829 57.5 0.818829ZM-1.16946e-06 57.5C-5.23587e-07 25.7436 25.7436 -9.39217e-08 57.5 -2.0978e-07C89.2564 -3.25638e-07 115 25.7436 115 57.5C115 89.2564 89.2564 115 57.5 115C25.7436 115 -1.81534e-06 89.2564 -1.16946e-06 57.5Z" fill="#D7DDE8"/>
<path fill-rule="evenodd" clip-rule="evenodd" d="M73.6313 90.8488C74.3353 90.4423 75.0209 90.0161 75.6877 89.5715C75.8758 89.446 76.13 89.4968 76.2555 89.685C76.3809 89.8731 76.3301 90.1273 76.142 90.2527C75.4606 90.7072 74.76 91.1426 74.0407 91.5579C73.3214 91.9732 72.594 92.3622 71.8597 92.7251C71.657 92.8253 71.4115 92.7422 71.3113 92.5395C71.2111 92.3368 71.2942 92.0912 71.4969 91.991C72.2154 91.6359 72.9272 91.2552 73.6313 90.8488ZM67.5531 94.1013C67.626 94.3153 67.5116 94.548 67.2976 94.6209C65.723 95.1572 64.1287 95.5836 62.5245 95.9028C62.3027 95.9469 62.0872 95.8029 62.043 95.5811C61.9989 95.3594 62.1429 95.1438 62.3647 95.0997C63.9338 94.7875 65.4934 94.3704 67.0335 93.8458C67.2476 93.7729 67.4802 93.8873 67.5531 94.1013ZM79.4872 87.2112C79.3382 87.041 79.3555 86.7824 79.5256 86.6335C80.7501 85.5619 81.8911 84.4198 82.946 83.2171C83.0951 83.0471 83.3538 83.0301 83.5238 83.1792C83.6938 83.3283 83.7107 83.587 83.5616 83.757C82.4831 84.9867 81.3166 86.1542 80.0649 87.2496C79.8947 87.3986 79.6361 87.3813 79.4872 87.2112ZM58.0075 96.1108C58.0221 96.3364 57.8511 96.5312 57.6254 96.5458C55.9743 96.6528 54.3237 96.6504 52.6842 96.5414C52.4586 96.5264 52.2879 96.3314 52.3029 96.1058C52.3179 95.8801 52.5129 95.7094 52.7385 95.7244C54.3425 95.831 55.9573 95.8333 57.5725 95.7287C57.7981 95.7141 57.9929 95.8852 58.0075 96.1108ZM86.0002 79.9492C85.8121 79.8237 85.7613 79.5695 85.8868 79.3814C86.785 78.035 87.5904 76.6353 88.3001 75.1929C88.3999 74.99 88.6453 74.9065 88.8482 75.0063C89.0511 75.1061 89.1346 75.3515 89.0348 75.5544C88.3094 77.0287 87.4862 78.4594 86.568 79.8358C86.4425 80.0239 86.1883 80.0747 86.0002 79.9492ZM48.2672 95.5716C48.223 95.7933 48.0074 95.9373 47.7857 95.8931C46.1689 95.5708 44.5744 95.1436 43.0131 94.6143C42.799 94.5417 42.6842 94.3092 42.7568 94.0951C42.8294 93.8809 43.0619 93.7662 43.276 93.8388C44.8036 94.3567 46.3638 94.7747 47.9457 95.09C48.1675 95.1342 48.3114 95.3498 48.2672 95.5716ZM90.4034 71.2442C90.1893 71.1716 90.0745 70.9392 90.1471 70.7251C90.665 69.1974 91.0831 67.6373 91.3984 66.0553C91.4426 65.8336 91.6582 65.6896 91.8799 65.7338C92.1017 65.778 92.2456 65.9936 92.2014 66.2154C91.8791 67.8322 91.4519 69.4267 90.9226 70.988C90.85 71.2021 90.6175 71.3168 90.4034 71.2442ZM38.9948 92.5399C38.8949 92.7427 38.6495 92.8263 38.4466 92.7265C36.9724 92.0011 35.5417 91.1779 34.1652 90.2597C33.9771 90.1342 33.9264 89.88 34.0519 89.6919C34.1773 89.5038 34.4315 89.453 34.6196 89.5785C35.9661 90.4767 37.3658 91.2821 38.8081 91.9918C39.011 92.0916 39.0946 92.337 38.9948 92.5399ZM92.4141 61.6982C92.1885 61.6832 92.0177 61.4881 92.0327 61.2625C92.1393 59.6586 92.1417 58.0437 92.037 56.4286C92.0224 56.2029 92.1935 56.0081 92.4191 55.9935C92.6448 55.9789 92.8395 56.15 92.8541 56.3756C92.9611 58.0267 92.9587 59.6774 92.8497 61.3168C92.8347 61.5424 92.6397 61.7132 92.4141 61.6982ZM30.8218 87.2154C30.6727 87.3854 30.4141 87.4024 30.2441 87.2533C29.0144 86.1747 27.8468 85.0083 26.7514 83.7566C26.6025 83.5864 26.6197 83.3277 26.7899 83.1788C26.96 83.0299 27.2187 83.0471 27.3676 83.2173C28.4391 84.4417 29.5812 85.5827 30.784 86.6377C30.954 86.7868 30.9709 87.0454 30.8218 87.2154ZM91.8895 51.958C91.6677 52.0021 91.4521 51.8581 91.408 51.6364C91.0958 50.0673 90.6787 48.5077 90.1541 46.9675C90.0812 46.7535 90.1956 46.5209 90.4096 46.448C90.6237 46.375 90.8563 46.4895 90.9292 46.7035C91.4655 48.278 91.8919 49.8724 92.2111 51.4766C92.2552 51.6983 92.1112 51.9139 91.8895 51.958ZM88.8478 42.6898C88.6451 42.79 88.3996 42.7069 88.2994 42.5042C87.9442 41.7857 87.5636 41.0738 87.1571 40.3698L87.8662 39.9604C88.2815 40.6797 88.6705 41.407 89.0334 42.1413C89.1336 42.344 89.0505 42.5896 88.8478 42.6898ZM24.3161 79.9472C24.128 80.0726 23.8738 80.0218 23.7483 79.8337C23.2939 79.1522 22.8585 78.4517 22.4432 77.7324C22.0279 77.013 21.6389 76.2857 21.276 75.5514C21.1758 75.3487 21.2589 75.1032 21.4616 75.003C21.6643 74.9028 21.9098 74.9859 22.01 75.1886C22.3652 75.9071 22.7458 76.6189 23.1523 77.3229C23.5588 78.027 23.9849 78.7126 24.4296 79.3794C24.555 79.5675 24.5042 79.8217 24.3161 79.9472ZM19.8998 71.2448C19.6857 71.3177 19.4531 71.2033 19.3802 70.9892C18.8439 69.4147 18.4175 67.8203 18.0983 66.2162C18.0542 65.9944 18.1982 65.7788 18.4199 65.7347C18.6417 65.6906 18.8572 65.8346 18.9014 66.0564C19.2136 67.6255 19.6307 69.185 20.1553 70.7252C20.2282 70.9393 20.1138 71.1719 19.8998 71.2448ZM17.8903 61.6992C17.6646 61.7138 17.4699 61.5428 17.4552 61.3171C17.3483 59.666 17.3507 58.0154 17.4596 56.3759C17.4746 56.1503 17.6697 55.9796 17.8953 55.9946C18.1209 56.0095 18.2917 56.2046 18.2767 56.4302C18.1701 58.0342 18.1677 59.649 18.2724 61.2642C18.287 61.4898 18.1159 61.6846 17.8903 61.6992ZM18.4295 51.9589C18.2077 51.9147 18.0638 51.6991 18.108 51.4774C18.4302 49.8606 18.8575 48.2661 19.3868 46.7048C19.4594 46.4906 19.6918 46.3759 19.906 46.4485C20.1201 46.5211 20.2349 46.7535 20.1623 46.9677C19.6444 48.4953 19.2263 50.0555 18.911 51.6374C18.8668 51.8592 18.6512 52.0031 18.4295 51.9589ZM21.4612 42.6864C21.2583 42.5866 21.1748 42.3412 21.2746 42.1383C22 40.6641 22.8232 39.2333 23.7414 37.8569C23.8669 37.6688 24.1211 37.6181 24.3092 37.7435C24.4973 37.869 24.548 38.1232 24.4226 38.3113C23.5243 39.6578 22.719 41.0575 22.0093 42.4998C21.9095 42.7027 21.6641 42.7863 21.4612 42.6864ZM26.7856 34.5135C26.6156 34.3644 26.5987 34.1057 26.7478 33.9358C27.8263 32.7061 28.9928 31.5385 30.2445 30.4431C30.4147 30.2942 30.6733 30.3114 30.8222 30.4816C30.9711 30.6517 30.9539 30.9104 30.7838 31.0593C29.5593 32.1308 28.4183 33.2729 27.3634 34.4757C27.2143 34.6457 26.9556 34.6626 26.7856 34.5135ZM34.0539 28.0078C33.9284 27.8197 33.9792 27.5655 34.1674 27.44C34.8488 26.9856 35.5494 26.5502 36.2687 26.1349L36.6781 26.844C35.974 27.2505 35.2885 27.6766 34.6217 28.1213C34.4335 28.2467 34.1793 28.1959 34.0539 28.0078Z" fill="#B5DCFF"/>
<path fill-rule="evenodd" clip-rule="evenodd" d="M86.1926 38.0306L89.2113 38.9132C89.4283 38.9766 89.6557 38.8521 89.7192 38.6351C89.7826 38.4181 89.6581 38.1907 89.4411 38.1273L86.374 37.2305C85.9667 37.1114 85.5399 37.3451 85.4208 37.7524L84.524 40.8195C84.4606 41.0365 84.5851 41.2639 84.8021 41.3274C85.0191 41.3908 85.2465 41.2663 85.3099 41.0493L86.1926 38.0306Z" fill="#B5DCFF"/>
<path fill-rule="evenodd" clip-rule="evenodd" d="M85.63 37.4183C85.814 37.2869 86.0697 37.3295 86.2011 37.5135C86.804 38.3575 88.2307 40.4843 89.1066 42.2362C89.2077 42.4384 89.1258 42.6843 88.9235 42.7855C88.7213 42.8866 88.4754 42.8046 88.3742 42.6024C87.5267 40.9073 86.1288 38.8211 85.5348 37.9895C85.4034 37.8055 85.446 37.5498 85.63 37.4183Z" fill="#B5DCFF"/>
<path d="M39.3221 67.8762L52.5705 60.0753C54.0215 59.2209 54.747 58.7937 55.5479 58.7854C56.3488 58.7771 57.083 59.1892 58.5514 60.0132L72.5994 67.8973C74.0936 68.7358 74.8407 69.1551 75.2518 69.8573C75.6629 70.5594 75.6629 71.4161 75.6629 73.1296V88.6868C75.6629 90.4003 75.6629 91.257 75.2518 91.9591C74.8407 92.6613 74.0936 93.0806 72.5994 93.9191L58.5514 101.803L58.5513 101.803C57.083 102.627 56.3488 103.039 55.5479 103.031C54.747 103.023 54.0215 102.596 52.5705 101.741L39.3221 93.9402L39.322 93.9402C37.879 93.0905 37.1575 92.6656 36.762 91.9737C36.3665 91.2818 36.3665 90.4445 36.3665 88.7699V73.0465C36.3665 71.3719 36.3665 70.5346 36.762 69.8427C37.1575 69.1508 37.879 68.7259 39.3221 67.8762L39.3221 67.8762Z" fill="#E5EEF7" stroke="#0077FF"/>
<path d="M50.3731 61.2242C52.7916 59.7883 54.0009 59.0703 55.5259 59.0581C57.051 59.0458 58.2946 59.744 60.7819 61.1404L70.1474 66.3982C72.5892 67.7691 73.8101 68.4545 73.8429 69.3204C73.8757 70.1863 72.7078 70.9018 70.3722 72.3327L61.327 77.8741C58.8137 79.4139 57.557 80.1838 55.9666 80.1834C54.3762 80.183 53.1207 79.4125 50.6095 77.8716L41.5074 72.2861C39.2346 70.8914 38.0982 70.194 38.1103 69.3457C38.1225 68.4974 39.2787 67.8109 41.5912 66.438L50.3731 61.2242Z" fill="#F6F7F9" stroke="#0077FF"/>
<path d="M55.469 79.9414L55.469 103.254" stroke="#0077FF"/>
<path d="M40.2904 16.5677L47.7241 12.1906C51.8879 9.73885 53.9699 8.51296 56.2682 8.48912C58.5665 8.46529 60.6734 9.64773 64.8873 12.0126L73.0467 16.5919C74.7619 17.5545 75.6195 18.0357 76.0914 18.8417C76.5633 19.6477 76.5633 20.6311 76.5633 22.5979V37.3283C76.5633 39.2951 76.5633 40.2785 76.0914 41.0845C75.6195 41.8905 74.7619 42.3718 73.0467 43.3344L59.7076 50.8206L59.7076 50.8206C58.0221 51.7665 57.1793 52.2395 56.26 52.23C55.3406 52.2204 54.5079 51.7301 52.8423 50.7494L40.2904 43.3585C38.634 42.3832 37.8057 41.8955 37.3517 41.1013C36.8977 40.3071 36.8977 39.3459 36.8977 37.4237V22.5026C36.8977 20.5803 36.8977 19.6192 37.3517 18.825C37.8057 18.0308 38.634 17.5431 40.2904 16.5677Z" fill="#F6F7F9"/>
<path fill-rule="evenodd" clip-rule="evenodd" d="M65.0693 11.6444L73.2674 16.2453C74.1088 16.7175 74.7667 17.0868 75.2712 17.4398C75.787 17.8008 76.1697 18.163 76.4459 18.6346C76.722 19.1063 76.8505 19.6173 76.9129 20.2437C76.9739 20.8565 76.9739 21.6109 76.9739 22.5758V37.3499C76.9739 38.3148 76.9739 39.0693 76.9129 39.682C76.8505 40.3085 76.722 40.8195 76.4459 41.2911C76.1697 41.7628 75.787 42.1249 75.2712 42.4859C74.7667 42.839 74.1087 43.2083 73.2672 43.6805L59.9229 51.1696L59.9092 51.1773L59.8903 51.1879C59.0635 51.652 58.4169 52.0148 57.8622 52.2582C57.295 52.5071 56.7949 52.6447 56.2569 52.6391C55.719 52.6335 55.2218 52.4856 54.66 52.225C54.1104 51.9702 53.4714 51.5939 52.6544 51.1129L40.0653 43.7001C39.2528 43.2217 38.6173 42.8475 38.1302 42.4926C37.6323 42.1297 37.2632 41.7689 36.9975 41.3042C36.7318 40.8395 36.6082 40.3384 36.5482 39.7251C36.4895 39.1253 36.4895 38.3878 36.4895 37.4449V22.4808C36.4895 21.5379 36.4895 20.8004 36.5482 20.2006C36.6082 19.5874 36.7318 19.0862 36.9975 18.6215C37.2632 18.1568 37.6323 17.796 38.1302 17.4331C38.6173 17.0782 39.2528 16.704 40.0653 16.2256L47.5369 11.8262C49.6025 10.6099 51.1782 9.6821 52.5247 9.05772C53.8835 8.42762 55.0377 8.09221 56.2652 8.07948C57.4926 8.06675 58.6535 8.37815 60.0251 8.97993C61.3843 9.57625 62.9789 10.4712 65.0693 11.6444ZM59.6961 9.72976C58.3862 9.15506 57.3445 8.88715 56.2737 8.89826C55.2028 8.90937 54.1668 9.19882 52.8692 9.80057C51.5633 10.4061 50.0218 11.3133 47.933 12.5432L40.4993 16.9203C39.6643 17.412 39.0634 17.7663 38.6125 18.0949C38.1687 18.4183 37.8967 18.6984 37.7084 19.0279C37.52 19.3574 37.4166 19.7339 37.3631 20.2804C37.3088 20.8357 37.3083 21.5333 37.3083 22.5023V37.4234C37.3083 38.3924 37.3088 39.09 37.3631 39.6454C37.4166 40.1918 37.52 40.5683 37.7084 40.8978C37.8967 41.2273 38.1687 41.5075 38.6125 41.8308C39.0634 42.1594 39.6643 42.5138 40.4993 43.0054L53.0513 50.3963C53.8909 50.8907 54.4956 51.2462 55.0044 51.4822C55.5052 51.7144 55.884 51.8163 56.2654 51.8203C56.6468 51.8243 57.0277 51.7301 57.5332 51.5084C58.0441 51.2842 58.6521 50.9438 59.4947 50.471L59.5084 50.4633L72.8476 42.9771C73.7122 42.4918 74.3345 42.1421 74.8017 41.815C75.2615 41.4932 75.5435 41.2117 75.7393 40.8774C75.935 40.5431 76.0425 40.1594 76.0981 39.6009C76.1546 39.0334 76.1551 38.3195 76.1551 37.3281V22.5977C76.1551 21.6062 76.1546 20.8923 76.0981 20.3248C76.0425 19.7664 75.935 19.3827 75.7393 19.0483C75.5435 18.714 75.2615 18.4325 74.8017 18.1107C74.3345 17.7837 73.7122 17.4339 72.8476 16.9486L64.6881 12.3694C62.5743 11.1831 61.0142 10.3081 59.6961 9.72976Z" fill="black"/>
<path d="M49.3443 11.0987C52.5832 9.17578 54.2027 8.21432 56.245 8.19787C58.2873 8.18143 59.9528 9.11644 63.2837 10.9865L69.291 14.359C72.5611 16.1949 74.1961 17.1128 74.24 18.2724C74.284 19.4319 72.72 20.3901 69.5921 22.3063L63.8615 25.8171C60.4958 27.8791 58.8129 28.9102 56.683 28.9097C54.5532 28.9091 52.8717 27.8773 49.5089 25.8137L43.6716 22.2317C40.6279 20.3639 39.106 19.43 39.1223 18.294C39.1386 17.1579 40.687 16.2386 43.7838 14.4L49.3443 11.0987Z" fill="#F6F7F9"/>
<path fill-rule="evenodd" clip-rule="evenodd" d="M72.5807 16.7478C71.7832 16.1626 70.5859 15.4896 68.9409 14.5661L62.9336 11.1935C61.2579 10.2528 60.0366 9.56799 58.982 9.11683C57.9391 8.67067 57.1191 8.47993 56.252 8.48692C55.3849 8.4939 54.5745 8.69776 53.5537 9.16054C52.5213 9.62851 51.3338 10.3327 49.7044 11.3L44.1439 14.6013C42.5858 15.5264 41.4524 16.2001 40.7005 16.7829C39.9572 17.359 39.6309 17.8137 39.624 18.2964C39.6171 18.7791 39.9303 19.2369 40.657 19.82C41.3921 20.4098 42.5061 21.0943 44.0374 22.034L49.8747 25.616C51.5661 26.654 52.8 27.4102 53.8739 27.9108C54.9365 28.406 55.7799 28.6205 56.6832 28.6207C57.5865 28.6209 58.4302 28.4069 59.4935 27.9121C60.5681 27.412 61.8031 26.6564 63.496 25.6192L69.2266 22.1084C70.8002 21.1444 71.9453 20.442 72.6977 19.8373C73.4417 19.2394 73.7571 18.7712 73.7384 18.2787C73.7198 17.7863 73.3692 17.3264 72.5807 16.7478ZM73.37 16.3909C74.2274 17.0201 74.7163 17.599 74.7416 18.2661C74.7669 18.9332 74.3223 19.5239 73.5133 20.174C72.7173 20.8137 71.5257 21.5437 69.9842 22.4881L64.1993 26.0322C62.5399 27.0488 61.2585 27.8338 60.1241 28.3617C58.972 28.8978 57.9094 29.199 56.6828 29.1987C55.4562 29.1984 54.394 28.8967 53.2427 28.3601C52.109 27.8317 50.8288 27.046 49.1708 26.0286L43.2796 22.4135C41.7799 21.4932 40.62 20.7814 39.8419 20.157C39.0507 19.5222 38.6112 18.945 38.6206 18.2917C38.6299 17.6383 39.0859 17.0653 39.8951 16.4381C40.6911 15.8212 41.8712 15.1206 43.3971 14.2146L49.0116 10.8813C50.6079 9.93357 51.8416 9.2011 52.9331 8.70631C54.0423 8.20351 55.0628 7.91842 56.238 7.90896C57.4132 7.8995 58.4471 8.16804 59.5803 8.65279C60.6953 9.12981 61.9641 9.84213 63.6058 10.7638L69.669 14.1678C71.2805 15.0725 72.5263 15.7719 73.37 16.3909Z" fill="black"/>
<path fill-rule="evenodd" clip-rule="evenodd" d="M55.7734 52.5183L55.7734 28.9868L56.5923 28.9868L56.5923 52.5183L55.7734 52.5183Z" fill="black"/>
<path fill-rule="evenodd" clip-rule="evenodd" d="M63.6436 18.6152L63.9516 18.3019C65.1388 17.0942 64.8378 15.5335 63.0529 14.5054C60.9071 13.2693 57.428 13.2693 55.2821 14.5054C55.1408 14.5868 55.009 14.6716 54.8866 14.7591L54.3288 15.1583L53.574 14.8872C51.8535 14.2692 49.5602 14.3915 48.0658 15.2524C46.3787 16.2242 46.3267 17.7817 47.9099 18.7895L47.9151 18.7925L47.931 18.8026C47.9754 18.8307 48.0202 18.8578 48.0658 18.8841C48.1105 18.9099 48.1618 18.9379 48.2159 18.9665L48.2313 18.9747L55.0662 22.9075L55.0849 22.9196C55.1586 22.967 55.2328 23.0126 55.3081 23.0559C57.5201 24.3301 61.1065 24.3301 63.3185 23.0559C65.2744 21.9293 65.501 20.1824 63.9961 18.9126L63.6436 18.6152ZM47.1835 19.1885C45.2255 17.954 45.2828 16.0381 47.3563 14.8436C49.1882 13.7884 51.9972 13.6396 54.105 14.3967C54.2497 14.2931 54.4056 14.1929 54.5726 14.0967C57.1103 12.6349 61.2248 12.6349 63.7624 14.0967C65.8745 15.3133 66.2284 17.1589 64.8248 18.5867C66.5966 20.0817 66.3315 22.1378 64.028 23.4647C61.4242 24.9646 57.2025 24.9646 54.5986 23.4646C54.5083 23.4126 54.4213 23.3592 54.3371 23.305L47.5369 19.3921C47.4759 19.3598 47.4138 19.326 47.3563 19.2928C47.2988 19.2597 47.2431 19.2259 47.1889 19.1916L47.1835 19.1885Z" fill="#0077FF"/>
</svg>
