<svg width="125" height="22" viewBox="0 0 125 22" fill="none" xmlns="http://www.w3.org/2000/svg">
<path d="M12.1382 21.0912H7.12832L0 0.908592H3.69298L9.38991 17.5413H9.96247L15.8598 0.908592H19.4955L12.1382 21.0912Z" fill="white"/>
<path d="M29.0335 10.642L38.3089 21.0912H33.7857L26.228 12.4456H25.3691V21.0912H21.9338V0.908592H25.3691V9.12477H26.1993L33.3563 0.908592H37.5932L29.0335 10.642Z" fill="white"/>
<path d="M55.4118 21.3775C53.5032 21.3775 51.7951 20.9385 50.2874 20.0606C48.7797 19.1636 47.5964 17.9326 46.7375 16.3676C45.8978 14.7835 45.4779 12.9895 45.4779 10.9856C45.4779 9.00071 45.8978 7.22579 46.7375 5.6608C47.5964 4.07673 48.7797 2.84574 50.2874 1.96782C51.7951 1.07082 53.5032 0.622314 55.4118 0.622314C57.492 0.622314 59.3338 1.14716 60.9369 2.19684C62.5401 3.22744 63.6852 4.64929 64.3723 6.46238L60.9655 7.03494C60.4884 6.00434 59.7632 5.20276 58.7898 4.6302C57.8356 4.05765 56.7477 3.77137 55.5263 3.77137C54.2666 3.77137 53.1406 4.07673 52.1482 4.68746C51.1749 5.29819 50.4114 6.14748 49.858 7.23533C49.3236 8.32319 49.0564 9.57327 49.0564 10.9856C49.0564 12.3979 49.3236 13.6575 49.858 14.7644C50.4114 15.8523 51.1749 16.7016 52.1482 17.3123C53.1406 17.923 54.2666 18.2284 55.5263 18.2284C56.7668 18.2284 57.8833 17.9326 58.8757 17.3409C59.8681 16.7302 60.6125 15.8905 61.1087 14.8217L64.5154 15.3943C63.7902 17.2264 62.6069 18.6864 60.9655 19.7743C59.3433 20.8431 57.492 21.3775 55.4118 21.3775Z" fill="white"/>
<path d="M70.5406 21.0912H67.2485V0.908592H70.5406V21.0912Z" fill="white"/>
<path d="M81.5017 21.3775C79.9749 21.3775 78.6008 21.053 77.3793 20.4041C76.177 19.7361 75.2322 18.82 74.5452 17.6558C73.8772 16.4726 73.5432 15.1366 73.5432 13.648C73.5432 12.1593 73.8772 10.8329 74.5452 9.66869C75.2322 8.48541 76.177 7.56932 77.3793 6.92043C78.6008 6.25245 79.9749 5.91845 81.5017 5.91845C83.0285 5.91845 84.3931 6.25245 85.5955 6.92043C86.817 7.56932 87.7617 8.48541 88.4297 9.66869C89.1167 10.8329 89.4603 12.1593 89.4603 13.648C89.4603 15.1366 89.1167 16.4726 88.4297 17.6558C87.7617 18.82 86.817 19.7361 85.5955 20.4041C84.3931 21.053 83.0285 21.3775 81.5017 21.3775ZM81.5017 18.3715C82.8377 18.3715 83.9256 17.9421 84.7653 17.0833C85.605 16.2054 86.0249 15.0603 86.0249 13.648C86.0249 12.2357 85.605 11.1001 84.7653 10.2413C83.9256 9.36333 82.8377 8.92437 81.5017 8.92437C80.1658 8.92437 79.0779 9.36333 78.2382 10.2413C77.3984 11.1001 76.9785 12.2357 76.9785 13.648C76.9785 15.0603 77.3984 16.2054 78.2382 17.0833C79.0779 17.9421 80.1658 18.3715 81.5017 18.3715Z" fill="white"/>
<path d="M97.7617 21.3775C96.712 21.3775 95.7577 21.1103 94.8989 20.5759C94.0591 20.0415 93.3911 19.3067 92.8949 18.3715C92.4178 17.4364 92.1792 16.3771 92.1792 15.1939V6.20473H95.4714V14.8217C95.4714 15.8905 95.7672 16.7588 96.3589 17.4268C96.9696 18.0948 97.7426 18.4288 98.6777 18.4288C99.632 18.4288 100.424 18.0948 101.054 17.4268C101.684 16.7398 101.999 15.8714 101.999 14.8217V6.20473H105.291V21.0912H102.829L102.17 18.8582C101.693 19.6407 101.063 20.261 100.281 20.719C99.4984 21.158 98.6587 21.3775 97.7617 21.3775Z" fill="white"/>
<path d="M115.425 21.3775C114.032 21.3775 112.782 21.053 111.675 20.4041C110.568 19.7361 109.7 18.82 109.07 17.6558C108.459 16.4726 108.154 15.1366 108.154 13.648C108.154 12.1593 108.459 10.8329 109.07 9.66869C109.7 8.48541 110.568 7.56932 111.675 6.92043C112.782 6.25245 114.032 5.91845 115.425 5.91845C116.628 5.91845 117.696 6.16656 118.632 6.66278C119.567 7.13991 120.33 7.74109 120.922 8.46633V0.908592H124.214V21.0912H121.752L121.065 18.6864C120.454 19.4308 119.672 20.0701 118.717 20.6045C117.763 21.1198 116.666 21.3775 115.425 21.3775ZM116.227 18.4288C117.62 18.4288 118.746 17.9898 119.605 17.1119C120.483 16.2149 120.922 15.0603 120.922 13.648C120.922 12.2357 120.483 11.0905 119.605 10.2126C118.746 9.31562 117.62 8.86712 116.227 8.86712C114.853 8.86712 113.736 9.31562 112.877 10.2126C112.019 11.0905 111.589 12.2357 111.589 13.648C111.589 15.0603 112.019 16.2149 112.877 17.1119C113.736 17.9898 114.853 18.4288 116.227 18.4288Z" fill="white"/>
</svg>
